<svg width="12" height="12" viewBox="0 0 12 12" fill="none" xmlns="http://www.w3.org/2000/svg">
<path fill-rule="evenodd" clip-rule="evenodd" d="M6.1233 11.0001C5.4458 11.0001 4.7853 10.9926 4.1318 10.9791C3.2958 10.9626 2.7173 10.4206 2.6228 9.56457C2.4653 8.14457 2.1958 4.79757 2.1933 4.76407C2.1763 4.55757 2.3303 4.37657 2.5368 4.36007C2.7403 4.35457 2.9243 4.49757 2.9408 4.70357C2.9433 4.73757 3.2123 8.07307 3.3683 9.48207C3.4218 9.96857 3.6843 10.2196 4.1473 10.2291C5.3973 10.2556 6.6728 10.2571 8.0478 10.2321C8.5398 10.2226 8.8058 9.97657 8.8608 9.47857C9.0158 8.08157 9.2858 4.73757 9.2888 4.70357C9.3053 4.49757 9.4878 4.35357 9.6923 4.36007C9.8988 4.37707 10.0528 4.55757 10.0363 4.76407C10.0333 4.79807 9.7623 8.15357 9.6063 9.56107C9.5093 10.4346 8.9323 10.9661 8.0613 10.9821C7.3948 10.9936 6.7518 11.0001 6.1233 11.0001Z" fill="#909299"/>
<path fill-rule="evenodd" clip-rule="evenodd" d="M10.354 3.49463H1.875C1.668 3.49463 1.5 3.32663 1.5 3.11963C1.5 2.91263 1.668 2.74463 1.875 2.74463H10.354C10.561 2.74463 10.729 2.91263 10.729 3.11963C10.729 3.32663 10.561 3.49463 10.354 3.49463Z" fill="#909299"/>
<path fill-rule="evenodd" clip-rule="evenodd" d="M8.72023 3.4945C8.15123 3.4945 7.65723 3.089 7.54523 2.531L7.42373 1.923C7.39823 1.8305 7.29273 1.75 7.17273 1.75H5.05623C4.93623 1.75 4.83073 1.8305 4.80023 1.946L4.68373 2.531C4.57223 3.089 4.07773 3.4945 3.50873 3.4945C3.30173 3.4945 3.13373 3.3265 3.13373 3.1195C3.13373 2.9125 3.30173 2.7445 3.50873 2.7445C3.72173 2.7445 3.90673 2.5925 3.94873 2.3835L4.07023 1.7755C4.19373 1.3095 4.59723 1 5.05623 1H7.17273C7.63173 1 8.03523 1.3095 8.15373 1.753L8.28073 2.3835C8.32223 2.5925 8.50723 2.7445 8.72023 2.7445C8.92723 2.7445 9.09523 2.9125 9.09523 3.1195C9.09523 3.3265 8.92723 3.4945 8.72023 3.4945Z" fill="#909299"/>
</svg>
