<svg width="29" height="29" viewBox="0 0 29 29" fill="none" xmlns="http://www.w3.org/2000/svg">
<path d="M11.25 12.5C14.7018 12.5 17.5 9.70178 17.5 6.25C17.5 2.79822 14.7018 0 11.25 0C7.79822 0 5 2.79822 5 6.25C5 9.70178 7.79822 12.5 11.25 12.5Z" fill="white"/>
<path d="M14.4175 26C14.1057 25.4579 13.9633 24.8349 14.0085 24.2112C14.0538 23.5874 14.2846 22.9915 14.6713 22.5C14.2844 22.0086 14.0535 21.4126 14.0083 20.7889C13.963 20.1651 14.1056 19.5421 14.4175 19L15.4288 17.25C15.7424 16.7089 16.2109 16.274 16.7738 16.0013C17.3368 15.7286 17.9684 15.6307 18.5875 15.72C18.6288 15.6175 18.6813 15.5212 18.7325 15.4237C18.0424 15.1469 17.3061 15.0032 16.5625 15H5.9375C4.36339 15.002 2.85431 15.6282 1.74125 16.7412C0.628178 17.8543 0.0019846 19.3634 0 20.9375L0 25.3125C0 25.83 0.42 26.25 0.9375 26.25H14.5613L14.4175 26Z" fill="white"/>
<path d="M27.1288 23.0863C27.1538 22.8925 27.1875 22.7 27.1875 22.5C27.1875 22.2988 27.1525 22.1075 27.1288 21.9138L28.255 21.0613C28.3765 20.9693 28.4603 20.836 28.4904 20.6866C28.5206 20.5372 28.4951 20.3819 28.4188 20.25L27.4075 18.5C27.3314 18.3681 27.2098 18.2685 27.0655 18.22C26.9212 18.1714 26.7641 18.1772 26.6238 18.2362L25.3275 18.7825C25.0138 18.5365 24.6697 18.3319 24.3038 18.1737L24.1313 16.7975C24.1124 16.6464 24.039 16.5073 23.9248 16.4065C23.8106 16.3057 23.6636 16.25 23.5113 16.25H21.49C21.3377 16.25 21.1907 16.3057 21.0765 16.4065C20.9623 16.5073 20.8889 16.6464 20.87 16.7975L20.6975 18.1737C20.3317 18.3321 19.9876 18.5367 19.6738 18.7825L18.3775 18.2362C18.2372 18.1772 18.0801 18.1714 17.9358 18.22C17.7915 18.2685 17.6699 18.3681 17.5938 18.5L16.5825 20.25C16.5062 20.3819 16.4807 20.5372 16.5109 20.6866C16.541 20.836 16.6248 20.9693 16.7463 21.0613L17.8725 21.9138C17.8475 22.1075 17.8138 22.3 17.8138 22.5C17.8138 22.7013 17.8488 22.8925 17.8725 23.0863L16.7463 23.9387C16.6248 24.0307 16.541 24.164 16.5109 24.3134C16.4807 24.4628 16.5062 24.6181 16.5825 24.75L17.5938 26.5013C17.6699 26.6331 17.7915 26.7327 17.9358 26.7813C18.0801 26.8298 18.2372 26.8241 18.3775 26.765L19.6738 26.2175C19.99 26.4588 20.3263 26.6713 20.6975 26.8263L20.87 28.2025C20.9088 28.515 21.1738 28.75 21.4888 28.75H23.51C23.6623 28.75 23.8094 28.6943 23.9236 28.5935C24.0377 28.4927 24.1111 28.3536 24.13 28.2025L24.3025 26.8263C24.6738 26.6713 25.0113 26.4575 25.3263 26.2175L26.6225 26.7638C26.7629 26.8228 26.9199 26.8286 27.0643 26.78C27.2086 26.7315 27.3302 26.6319 27.4063 26.5L28.4175 24.7488C28.4938 24.6168 28.5193 24.4615 28.4892 24.3121C28.459 24.1627 28.3753 24.0295 28.2538 23.9375L27.1288 23.0863ZM22.5 25C22.1671 25.0075 21.836 24.9485 21.5262 24.8263C21.2165 24.7041 20.9342 24.5213 20.6961 24.2885C20.4579 24.0557 20.2687 23.7777 20.1394 23.4708C20.0102 23.1639 19.9436 22.8343 19.9435 22.5013C19.9434 22.1683 20.0099 21.8386 20.139 21.5316C20.268 21.2246 20.4571 20.9465 20.6952 20.7137C20.9332 20.4808 21.2154 20.2978 21.5251 20.1755C21.8348 20.0531 22.1659 19.9939 22.4988 20.0012C23.152 20.0157 23.7736 20.2853 24.2305 20.7523C24.6874 21.2193 24.9433 21.8467 24.9435 22.5C24.9437 23.1534 24.6881 23.7808 24.2314 24.2481C23.7747 24.7153 23.1532 24.9852 22.5 25Z" fill="white"/>
</svg>
