<svg width="11" height="8" viewBox="0 0 11 8" fill="none" xmlns="http://www.w3.org/2000/svg">
<path d="M10.6455 3.87636C10.2273 2.77005 9.50127 1.81332 8.55717 1.12439C7.61308 0.435475 6.49229 0.044572 5.33333 0C4.17437 0.044572 3.05358 0.435475 2.10949 1.12439C1.1654 1.81332 0.439385 2.77005 0.0211827 3.87636C-0.00706089 3.95626 -0.00706089 4.04374 0.0211827 4.12364C0.439385 5.22995 1.1654 6.18669 2.10949 6.87561C3.05358 7.56453 4.17437 7.95543 5.33333 8C6.49229 7.95543 7.61308 7.56453 8.55717 6.87561C9.50127 6.18669 10.2273 5.22995 10.6455 4.12364C10.6737 4.04374 10.6737 3.95626 10.6455 3.87636ZM5.33333 6.36364C4.87623 6.36364 4.42938 6.22501 4.04931 5.96529C3.66924 5.70557 3.37301 5.33642 3.19808 4.90452C3.02316 4.47263 2.97739 3.99738 3.06657 3.53888C3.15574 3.08038 3.37586 2.65922 3.69908 2.32866C4.02231 1.9981 4.43412 1.77298 4.88244 1.68178C5.33077 1.59058 5.79547 1.63739 6.21778 1.81628C6.64009 1.99518 7.00105 2.29814 7.25501 2.68683C7.50896 3.07553 7.64451 3.53252 7.64451 4C7.64357 4.62658 7.39977 5.22722 6.96654 5.67028C6.53332 6.11334 5.94601 6.36267 5.33333 6.36364Z" fill="#909299"/>
</svg>
